<mxfile host="Electron" agent="Mozilla/5.0 (Windows NT 10.0; Win64; x64) AppleWebKit/537.36 (KHTML, like Gecko) draw.io/26.0.3 Chrome/130.0.6723.137 Electron/33.2.1 Safari/537.36" version="26.0.3">
  <diagram id="Ht1M8jgEwFfnCIfOTk4-" name="Page-1">
    <mxGraphModel dx="1098" dy="868" grid="1" gridSize="10" guides="1" tooltips="1" connect="1" arrows="1" fold="1" page="1" pageScale="1" pageWidth="1169" pageHeight="827" math="0" shadow="0">
      <root>
        <mxCell id="0" />
        <mxCell id="1" parent="0" />
        <mxCell id="UEzPUAAOIrF-is8g5C7q-74" value="AWS Cloud" style="points=[[0,0],[0.25,0],[0.5,0],[0.75,0],[1,0],[1,0.25],[1,0.5],[1,0.75],[1,1],[0.75,1],[0.5,1],[0.25,1],[0,1],[0,0.75],[0,0.5],[0,0.25]];outlineConnect=0;gradientColor=none;html=1;whiteSpace=wrap;fontSize=12;fontStyle=0;shape=mxgraph.aws4.group;grIcon=mxgraph.aws4.group_aws_cloud_alt;strokeColor=#232F3E;fillColor=none;verticalAlign=top;align=left;spacingLeft=30;fontColor=#232F3E;dashed=0;labelBackgroundColor=#ffffff;container=1;pointerEvents=0;collapsible=0;recursiveResize=0;" parent="1" vertex="1">
          <mxGeometry x="40" y="40" width="680" height="720" as="geometry" />
        </mxCell>
        <mxCell id="9UTULf64D1P_8PDWrGwd-11" value="Region&amp;nbsp;us-east-1" style="points=[[0,0],[0.25,0],[0.5,0],[0.75,0],[1,0],[1,0.25],[1,0.5],[1,0.75],[1,1],[0.75,1],[0.5,1],[0.25,1],[0,1],[0,0.75],[0,0.5],[0,0.25]];outlineConnect=0;gradientColor=none;html=1;whiteSpace=wrap;fontSize=12;fontStyle=0;container=1;pointerEvents=0;collapsible=0;recursiveResize=0;shape=mxgraph.aws4.group;grIcon=mxgraph.aws4.group_region;strokeColor=#00A4A6;fillColor=none;verticalAlign=top;align=left;spacingLeft=30;fontColor=#147EBA;dashed=1;" parent="UEzPUAAOIrF-is8g5C7q-74" vertex="1">
          <mxGeometry x="39" y="40" width="601" height="640" as="geometry" />
        </mxCell>
        <mxCell id="9UTULf64D1P_8PDWrGwd-8" value="VPC (10.0.0.0/16)" style="points=[[0,0],[0.25,0],[0.5,0],[0.75,0],[1,0],[1,0.25],[1,0.5],[1,0.75],[1,1],[0.75,1],[0.5,1],[0.25,1],[0,1],[0,0.75],[0,0.5],[0,0.25]];outlineConnect=0;gradientColor=none;html=1;whiteSpace=wrap;fontSize=12;fontStyle=0;container=1;pointerEvents=0;collapsible=0;recursiveResize=0;shape=mxgraph.aws4.group;grIcon=mxgraph.aws4.group_vpc2;strokeColor=#8C4FFF;fillColor=none;verticalAlign=top;align=left;spacingLeft=30;fontColor=#AAB7B8;dashed=0;" parent="9UTULf64D1P_8PDWrGwd-11" vertex="1">
          <mxGeometry x="40" y="40" width="520" height="560" as="geometry" />
        </mxCell>
        <mxCell id="9UTULf64D1P_8PDWrGwd-12" value="Availability Zone us-east-1a" style="fillColor=none;strokeColor=#147EBA;dashed=1;verticalAlign=top;fontStyle=0;fontColor=#147EBA;whiteSpace=wrap;html=1;" parent="9UTULf64D1P_8PDWrGwd-8" vertex="1">
          <mxGeometry x="40" y="40" width="440" height="480" as="geometry" />
        </mxCell>
        <mxCell id="9UTULf64D1P_8PDWrGwd-15" value="Public subnet (10.0.1.0/24)" style="points=[[0,0],[0.25,0],[0.5,0],[0.75,0],[1,0],[1,0.25],[1,0.5],[1,0.75],[1,1],[0.75,1],[0.5,1],[0.25,1],[0,1],[0,0.75],[0,0.5],[0,0.25]];outlineConnect=0;gradientColor=none;html=1;whiteSpace=wrap;fontSize=12;fontStyle=0;container=1;pointerEvents=0;collapsible=0;recursiveResize=0;shape=mxgraph.aws4.group;grIcon=mxgraph.aws4.group_security_group;grStroke=0;strokeColor=#7AA116;fillColor=#F2F6E8;verticalAlign=top;align=left;spacingLeft=30;fontColor=#248814;dashed=0;" parent="9UTULf64D1P_8PDWrGwd-8" vertex="1">
          <mxGeometry x="82" y="77" width="358" height="403" as="geometry" />
        </mxCell>
        <mxCell id="r94AK6IX4XdTHrppU9AJ-12" value="HmsCluster" style="fillColor=#EFF0F3;strokeColor=none;dashed=0;verticalAlign=top;fontStyle=0;fontColor=#232F3D;whiteSpace=wrap;html=1;" parent="9UTULf64D1P_8PDWrGwd-15" vertex="1">
          <mxGeometry x="40" y="43" width="290" height="327" as="geometry" />
        </mxCell>
        <mxCell id="r94AK6IX4XdTHrppU9AJ-14" value="HmsWebApService" style="fillColor=none;strokeColor=#5A6C86;dashed=1;verticalAlign=top;fontStyle=0;fontColor=#5A6C86;whiteSpace=wrap;html=1;" parent="9UTULf64D1P_8PDWrGwd-15" vertex="1">
          <mxGeometry x="79" y="84" width="201" height="116" as="geometry" />
        </mxCell>
        <mxCell id="_xtegc8W-IFqy9H0ud7s-1" value="HmsDbService" style="fillColor=none;strokeColor=#5A6C86;dashed=1;verticalAlign=top;fontStyle=0;fontColor=#5A6C86;whiteSpace=wrap;html=1;" parent="9UTULf64D1P_8PDWrGwd-15" vertex="1">
          <mxGeometry x="79" y="223" width="201" height="116" as="geometry" />
        </mxCell>
        <mxCell id="r94AK6IX4XdTHrppU9AJ-15" value="" style="sketch=0;outlineConnect=0;fontColor=#232F3E;gradientColor=none;fillColor=#ED7100;strokeColor=none;dashed=0;verticalLabelPosition=bottom;verticalAlign=top;align=center;html=1;fontSize=12;fontStyle=0;aspect=fixed;pointerEvents=1;shape=mxgraph.aws4.ecs_service;" parent="9UTULf64D1P_8PDWrGwd-15" vertex="1">
          <mxGeometry x="79" y="223" width="39" height="48" as="geometry" />
        </mxCell>
        <mxCell id="r94AK6IX4XdTHrppU9AJ-9" value="" style="sketch=0;outlineConnect=0;fontColor=#232F3E;gradientColor=none;fillColor=#ED7100;strokeColor=none;dashed=0;verticalLabelPosition=bottom;verticalAlign=top;align=center;html=1;fontSize=12;fontStyle=0;aspect=fixed;pointerEvents=1;shape=mxgraph.aws4.ecs_task;" parent="9UTULf64D1P_8PDWrGwd-15" vertex="1">
          <mxGeometry x="161" y="271" width="37" height="48" as="geometry" />
        </mxCell>
        <mxCell id="_xtegc8W-IFqy9H0ud7s-2" value="" style="endArrow=classic;html=1;rounded=0;exitX=0.5;exitY=1;exitDx=0;exitDy=0;" parent="9UTULf64D1P_8PDWrGwd-15" source="r94AK6IX4XdTHrppU9AJ-14" target="_xtegc8W-IFqy9H0ud7s-1" edge="1">
          <mxGeometry width="50" height="50" relative="1" as="geometry">
            <mxPoint x="339" y="273" as="sourcePoint" />
            <mxPoint x="389" y="223" as="targetPoint" />
          </mxGeometry>
        </mxCell>
        <mxCell id="r94AK6IX4XdTHrppU9AJ-3" value="" style="sketch=0;outlineConnect=0;fontColor=#232F3E;gradientColor=none;fillColor=#ED7100;strokeColor=none;dashed=0;verticalLabelPosition=bottom;verticalAlign=top;align=center;html=1;fontSize=12;fontStyle=0;aspect=fixed;pointerEvents=1;shape=mxgraph.aws4.ecs_service;" parent="9UTULf64D1P_8PDWrGwd-8" vertex="1">
          <mxGeometry x="162" y="161" width="39" height="48" as="geometry" />
        </mxCell>
        <mxCell id="r94AK6IX4XdTHrppU9AJ-4" value="" style="sketch=0;outlineConnect=0;fontColor=#232F3E;gradientColor=none;fillColor=#ED7100;strokeColor=none;dashed=0;verticalLabelPosition=bottom;verticalAlign=top;align=center;html=1;fontSize=12;fontStyle=0;aspect=fixed;pointerEvents=1;shape=mxgraph.aws4.ecs_task;" parent="9UTULf64D1P_8PDWrGwd-8" vertex="1">
          <mxGeometry x="240" y="206" width="37" height="48" as="geometry" />
        </mxCell>
        <mxCell id="r94AK6IX4XdTHrppU9AJ-7" value="" style="sketch=0;points=[[0,0,0],[0.25,0,0],[0.5,0,0],[0.75,0,0],[1,0,0],[0,1,0],[0.25,1,0],[0.5,1,0],[0.75,1,0],[1,1,0],[0,0.25,0],[0,0.5,0],[0,0.75,0],[1,0.25,0],[1,0.5,0],[1,0.75,0]];outlineConnect=0;fontColor=#232F3E;fillColor=#ED7100;strokeColor=#ffffff;dashed=0;verticalLabelPosition=bottom;verticalAlign=top;align=center;html=1;fontSize=12;fontStyle=0;aspect=fixed;shape=mxgraph.aws4.resourceIcon;resIcon=mxgraph.aws4.ecs;" parent="9UTULf64D1P_8PDWrGwd-8" vertex="1">
          <mxGeometry x="122" y="124" width="37" height="37" as="geometry" />
        </mxCell>
        <mxCell id="9UTULf64D1P_8PDWrGwd-43" value="" style="sketch=0;outlineConnect=0;fontColor=#232F3E;gradientColor=none;fillColor=#8C4FFF;strokeColor=none;dashed=0;verticalLabelPosition=bottom;verticalAlign=top;align=center;html=1;fontSize=12;fontStyle=0;aspect=fixed;pointerEvents=1;shape=mxgraph.aws4.internet_gateway;" parent="9UTULf64D1P_8PDWrGwd-11" vertex="1">
          <mxGeometry x="20" y="280" width="40" height="40" as="geometry" />
        </mxCell>
        <mxCell id="9UTULf64D1P_8PDWrGwd-44" value="ルートテーブル" parent="0" />
      </root>
    </mxGraphModel>
  </diagram>
</mxfile>
